<svg width="25" height="9" viewBox="0 0 25 9" fill="none" xmlns="http://www.w3.org/2000/svg">
<path d="M2.36 3.87H1.46L1.7 1.64H4.9V1H1.07L0.71 4.51H2.2C3.98 4.51 4.54 5.07 4.54 5.97C4.54 6.82 3.91 7.4 2.72 7.4C1.82 7.4 1.02 7.06 0.57 6.59L0.22 7.16C0.76 7.71 1.72 8.06 2.73 8.06C4.44 8.06 5.27 7.13 5.27 5.94C5.27 4.7 4.47 3.87 2.36 3.87ZM8.56606 8.06C10.1861 8.06 11.3661 6.73 11.3661 4.5C11.3661 2.27 10.1861 0.94 8.56606 0.94C6.94606 0.94 5.77606 2.27 5.77606 4.5C5.77606 6.73 6.94606 8.06 8.56606 8.06ZM8.56606 7.4C7.34606 7.4 6.50606 6.37 6.50606 4.5C6.50606 2.63 7.34606 1.6 8.56606 1.6C9.78606 1.6 10.6261 2.63 10.6261 4.5C10.6261 6.37 9.78606 7.4 8.56606 7.4ZM12.5292 3.79C12.8192 3.79 13.0692 3.55 13.0692 3.24C13.0692 2.93 12.8192 2.7 12.5292 2.7C12.2392 2.7 11.9992 2.93 11.9992 3.24C11.9992 3.55 12.2392 3.79 12.5292 3.79ZM12.5292 8.05C12.8192 8.05 13.0692 7.81 13.0692 7.5C13.0692 7.19 12.8192 6.96 12.5292 6.96C12.2392 6.96 11.9992 7.19 11.9992 7.5C11.9992 7.81 12.2392 8.05 12.5292 8.05ZM15.5403 3.87H14.6403L14.8803 1.64H18.0803V1H14.2503L13.8903 4.51H15.3803C17.1603 4.51 17.7203 5.07 17.7203 5.97C17.7203 6.82 17.0903 7.4 15.9003 7.4C15.0003 7.4 14.2003 7.06 13.7503 6.59L13.4003 7.16C13.9403 7.71 14.9003 8.06 15.9103 8.06C17.6203 8.06 18.4503 7.13 18.4503 5.94C18.4503 4.7 17.6503 3.87 15.5403 3.87ZM21.7464 8.06C23.3664 8.06 24.5464 6.73 24.5464 4.5C24.5464 2.27 23.3664 0.94 21.7464 0.94C20.1264 0.94 18.9564 2.27 18.9564 4.5C18.9564 6.73 20.1264 8.06 21.7464 8.06ZM21.7464 7.4C20.5264 7.4 19.6864 6.37 19.6864 4.5C19.6864 2.63 20.5264 1.6 21.7464 1.6C22.9664 1.6 23.8064 2.63 23.8064 4.5C23.8064 6.37 22.9664 7.4 21.7464 7.4Z" fill="white"/>
<path d="M1.46 3.87L1.26115 3.8486L1.23732 4.07H1.46V3.87ZM1.7 1.64V1.44H1.52037L1.50115 1.6186L1.7 1.64ZM4.9 1.64V1.84H5.1V1.64H4.9ZM4.9 1H5.1V0.799999H4.9V1ZM1.07 1V0.799999H0.889464L0.871044 0.979594L1.07 1ZM0.71 4.51L0.511044 4.48959L0.488438 4.71H0.71V4.51ZM0.57 6.59L0.714462 6.45169L0.5352 6.26446L0.399566 6.48535L0.57 6.59ZM0.22 7.16L0.0495658 7.05535L-0.0322357 7.18857L0.0772872 7.30012L0.22 7.16ZM2.36 3.67H1.46V4.07H2.36V3.67ZM1.65885 3.8914L1.89885 1.6614L1.50115 1.6186L1.26115 3.8486L1.65885 3.8914ZM1.7 1.84H4.9V1.44H1.7V1.84ZM5.1 1.64V1H4.7V1.64H5.1ZM4.9 0.799999H1.07V1.2H4.9V0.799999ZM0.871044 0.979594L0.511044 4.48959L0.908956 4.53041L1.26896 1.02041L0.871044 0.979594ZM0.71 4.71H2.2V4.31H0.71V4.71ZM2.2 4.71C3.07707 4.71 3.61153 4.84953 3.92319 5.06661C4.21814 5.27206 4.34 5.56649 4.34 5.97H4.74C4.74 5.47351 4.58186 5.03794 4.15181 4.73839C3.73847 4.45047 3.10293 4.31 2.2 4.31V4.71ZM4.34 5.97C4.34 6.34171 4.20446 6.63987 3.9494 6.84913C3.68968 7.0622 3.2849 7.2 2.72 7.2V7.6C3.3451 7.6 3.85032 7.4478 4.2031 7.15837C4.56054 6.86513 4.74 6.44829 4.74 5.97H4.34ZM2.72 7.2C1.86497 7.2 1.12059 6.87586 0.714462 6.45169L0.425538 6.72831C0.919414 7.24414 1.77503 7.6 2.72 7.6V7.2ZM0.399566 6.48535L0.0495658 7.05535L0.390434 7.26465L0.740434 6.69465L0.399566 6.48535ZM0.0772872 7.30012C0.664689 7.8984 1.68213 8.26 2.73 8.26V7.86C1.75787 7.86 0.855312 7.5216 0.362713 7.01988L0.0772872 7.30012ZM2.73 8.26C3.62038 8.26 4.3081 8.01752 4.77546 7.59454C5.24445 7.17008 5.47 6.5831 5.47 5.94H5.07C5.07 6.4869 4.88055 6.95992 4.50704 7.29796C4.1319 7.63748 3.54962 7.86 2.73 7.86V8.26ZM5.47 5.94C5.47 5.27376 5.25257 4.69136 4.72942 4.28243C4.21549 3.8807 3.43586 3.67 2.36 3.67V4.07C3.39414 4.07 4.06951 4.2743 4.48308 4.59757C4.88743 4.91364 5.07 5.36624 5.07 5.94H5.47ZM8.56606 8.26C9.43524 8.26 10.1926 7.90117 10.7287 7.2425C11.2621 6.58713 11.5661 5.64878 11.5661 4.5H11.1661C11.1661 5.58122 10.88 6.42287 10.4184 6.99C9.95955 7.55383 9.31688 7.86 8.56606 7.86V8.26ZM11.5661 4.5C11.5661 3.35122 11.2621 2.41287 10.7287 1.7575C10.1926 1.09883 9.43524 0.74 8.56606 0.74V1.14C9.31688 1.14 9.95955 1.44617 10.4184 2.01C10.88 2.57713 11.1661 3.41878 11.1661 4.5H11.5661ZM8.56606 0.74C7.69676 0.74 6.94176 1.09894 6.40814 1.75788C5.87734 2.41334 5.57606 3.35162 5.57606 4.5H5.97606C5.97606 3.41838 6.25979 2.57666 6.71899 2.00962C7.17537 1.44606 7.81537 1.14 8.56606 1.14V0.74ZM5.57606 4.5C5.57606 5.64838 5.87734 6.58666 6.40814 7.24212C6.94176 7.90106 7.69676 8.26 8.56606 8.26V7.86C7.81537 7.86 7.17537 7.55394 6.71899 6.99038C6.25979 6.42334 5.97606 5.58162 5.97606 4.5H5.57606ZM8.56606 7.2C8.019 7.2 7.56395 6.9722 7.23949 6.5325C6.91038 6.0865 6.70606 5.40808 6.70606 4.5H6.30606C6.30606 5.46192 6.52174 6.2335 6.91763 6.77C7.31817 7.3128 7.89313 7.6 8.56606 7.6V7.2ZM6.70606 4.5C6.70606 3.59192 6.91038 2.9135 7.23949 2.4675C7.56395 2.0278 8.019 1.8 8.56606 1.8V1.4C7.89313 1.4 7.31817 1.6872 6.91763 2.23C6.52174 2.7665 6.30606 3.53808 6.30606 4.5H6.70606ZM8.56606 1.8C9.11313 1.8 9.56817 2.0278 9.89263 2.4675C10.2217 2.9135 10.4261 3.59192 10.4261 4.5H10.8261C10.8261 3.53808 10.6104 2.7665 10.2145 2.23C9.81395 1.6872 9.23899 1.4 8.56606 1.4V1.8ZM10.4261 4.5C10.4261 5.40808 10.2217 6.0865 9.89263 6.5325C9.56817 6.9722 9.11313 7.2 8.56606 7.2V7.6C9.23899 7.6 9.81395 7.3128 10.2145 6.77C10.6104 6.2335 10.8261 5.46192 10.8261 4.5H10.4261ZM12.5292 3.99C12.9296 3.99 13.2692 3.66046 13.2692 3.24H12.8692C12.8692 3.43954 12.7087 3.59 12.5292 3.59V3.99ZM13.2692 3.24C13.2692 2.81474 12.9247 2.5 12.5292 2.5V2.9C12.7136 2.9 12.8692 3.04526 12.8692 3.24H13.2692ZM12.5292 2.5C12.1287 2.5 11.7992 2.81954 11.7992 3.24H12.1992C12.1992 3.04046 12.3496 2.9 12.5292 2.9V2.5ZM11.7992 3.24C11.7992 3.65559 12.1239 3.99 12.5292 3.99V3.59C12.3544 3.59 12.1992 3.44441 12.1992 3.24H11.7992ZM12.5292 8.25C12.9296 8.25 13.2692 7.92046 13.2692 7.5H12.8692C12.8692 7.69954 12.7087 7.85 12.5292 7.85V8.25ZM13.2692 7.5C13.2692 7.07474 12.9247 6.76 12.5292 6.76V7.16C12.7136 7.16 12.8692 7.30526 12.8692 7.5H13.2692ZM12.5292 6.76C12.1287 6.76 11.7992 7.07954 11.7992 7.5H12.1992C12.1992 7.30046 12.3496 7.16 12.5292 7.16V6.76ZM11.7992 7.5C11.7992 7.91559 12.1239 8.25 12.5292 8.25V7.85C12.3544 7.85 12.1992 7.70441 12.1992 7.5H11.7992ZM14.6403 3.87L14.4414 3.8486L14.4176 4.07H14.6403V3.87ZM14.8803 1.64V1.44H14.7007L14.6814 1.6186L14.8803 1.64ZM18.0803 1.64V1.84H18.2803V1.64H18.0803ZM18.0803 1H18.2803V0.799999H18.0803V1ZM14.2503 1V0.799999H14.0698L14.0513 0.979594L14.2503 1ZM13.8903 4.51L13.6913 4.48959L13.6687 4.71H13.8903V4.51ZM13.7503 6.59L13.8948 6.45169L13.7155 6.26446L13.5799 6.48535L13.7503 6.59ZM13.4003 7.16L13.2299 7.05535L13.1481 7.18857L13.2576 7.30012L13.4003 7.16ZM15.5403 3.67H14.6403V4.07H15.5403V3.67ZM14.8391 3.8914L15.0791 1.6614L14.6814 1.6186L14.4414 3.8486L14.8391 3.8914ZM14.8803 1.84H18.0803V1.44H14.8803V1.84ZM18.2803 1.64V1H17.8803V1.64H18.2803ZM18.0803 0.799999H14.2503V1.2H18.0803V0.799999ZM14.0513 0.979594L13.6913 4.48959L14.0893 4.53041L14.4493 1.02041L14.0513 0.979594ZM13.8903 4.71H15.3803V4.31H13.8903V4.71ZM15.3803 4.71C16.2574 4.71 16.7918 4.84953 17.1035 5.06661C17.3984 5.27206 17.5203 5.56649 17.5203 5.97H17.9203C17.9203 5.47351 17.7622 5.03794 17.3321 4.73839C16.9188 4.45047 16.2832 4.31 15.3803 4.31V4.71ZM17.5203 5.97C17.5203 6.34171 17.3848 6.63987 17.1297 6.84913C16.87 7.0622 16.4652 7.2 15.9003 7.2V7.6C16.5254 7.6 17.0306 7.4478 17.3834 7.15837C17.7408 6.86513 17.9203 6.44829 17.9203 5.97H17.5203ZM15.9003 7.2C15.0453 7.2 14.3009 6.87586 13.8948 6.45169L13.6058 6.72831C14.0997 7.24414 14.9553 7.6 15.9003 7.6V7.2ZM13.5799 6.48535L13.2299 7.05535L13.5707 7.26465L13.9207 6.69465L13.5799 6.48535ZM13.2576 7.30012C13.845 7.8984 14.8624 8.26 15.9103 8.26V7.86C14.9382 7.86 14.0356 7.5216 13.543 7.01988L13.2576 7.30012ZM15.9103 8.26C16.8007 8.26 17.4884 8.01752 17.9558 7.59454C18.4247 7.17008 18.6503 6.5831 18.6503 5.94H18.2503C18.2503 6.4869 18.0609 6.95992 17.6873 7.29796C17.3122 7.63748 16.7299 7.86 15.9103 7.86V8.26ZM18.6503 5.94C18.6503 5.27376 18.4329 4.69136 17.9097 4.28243C17.3958 3.8807 16.6162 3.67 15.5403 3.67V4.07C16.5744 4.07 17.2498 4.2743 17.6634 4.59757C18.0677 4.91364 18.2503 5.36624 18.2503 5.94H18.6503ZM21.7464 8.26C22.6155 8.26 23.3729 7.90117 23.909 7.2425C24.4424 6.58713 24.7464 5.64878 24.7464 4.5H24.3464C24.3464 5.58122 24.0603 6.42287 23.5987 6.99C23.1398 7.55383 22.4972 7.86 21.7464 7.86V8.26ZM24.7464 4.5C24.7464 3.35122 24.4424 2.41287 23.909 1.7575C23.3729 1.09883 22.6155 0.74 21.7464 0.74V1.14C22.4972 1.14 23.1398 1.44617 23.5987 2.01C24.0603 2.57713 24.3464 3.41878 24.3464 4.5H24.7464ZM21.7464 0.74C20.8771 0.74 20.1221 1.09894 19.5884 1.75788C19.0576 2.41334 18.7564 3.35162 18.7564 4.5H19.1564C19.1564 3.41838 19.4401 2.57666 19.8993 2.00962C20.3557 1.44606 20.9957 1.14 21.7464 1.14V0.74ZM18.7564 4.5C18.7564 5.64838 19.0576 6.58666 19.5884 7.24212C20.1221 7.90106 20.8771 8.26 21.7464 8.26V7.86C20.9957 7.86 20.3557 7.55394 19.8993 6.99038C19.4401 6.42334 19.1564 5.58162 19.1564 4.5H18.7564ZM21.7464 7.2C21.1993 7.2 20.7442 6.9722 20.4198 6.5325C20.0907 6.0865 19.8864 5.40808 19.8864 4.5H19.4864C19.4864 5.46192 19.702 6.2335 20.0979 6.77C20.4985 7.3128 21.0734 7.6 21.7464 7.6V7.2ZM19.8864 4.5C19.8864 3.59192 20.0907 2.9135 20.4198 2.4675C20.7442 2.0278 21.1993 1.8 21.7464 1.8V1.4C21.0734 1.4 20.4985 1.6872 20.0979 2.23C19.702 2.7665 19.4864 3.53808 19.4864 4.5H19.8864ZM21.7464 1.8C22.2934 1.8 22.7485 2.0278 23.0729 2.4675C23.402 2.9135 23.6064 3.59192 23.6064 4.5H24.0064C24.0064 3.53808 23.7907 2.7665 23.3948 2.23C22.9942 1.6872 22.4193 1.4 21.7464 1.4V1.8ZM23.6064 4.5C23.6064 5.40808 23.402 6.0865 23.0729 6.5325C22.7485 6.9722 22.2934 7.2 21.7464 7.2V7.6C22.4193 7.6 22.9942 7.3128 23.3948 6.77C23.7907 6.2335 24.0064 5.46192 24.0064 4.5H23.6064Z" fill="white"/>
</svg>
