<?xml version="1.0" encoding="utf-8"?>
<!-- Generator: Adobe Illustrator 27.7.0, SVG Export Plug-In . SVG Version: 6.00 Build 0)  -->
<svg version="1.1" id="Layer_1" xmlns="http://www.w3.org/2000/svg" xmlns:xlink="http://www.w3.org/1999/xlink" x="0px" y="0px"
	 viewBox="0 0 20 20" style="enable-background:new 0 0 20 20;" xml:space="preserve">
<style type="text/css">
	.st0{fill:#FFFFFF;}
</style>
<g>
	<path class="st0" d="M14.23,19.86c-0.31-0.1-0.54-0.32-0.77-0.55c-2.83-2.84-5.67-5.67-8.51-8.51c-0.4-0.4-0.48-0.86-0.23-1.29
		c0.05-0.09,0.13-0.18,0.2-0.25c2.91-2.91,5.83-5.83,8.74-8.74c0.3-0.3,0.65-0.43,1.07-0.29c0.38,0.13,0.6,0.4,0.67,0.79
		c0.05,0.27-0.02,0.51-0.18,0.73c-0.06,0.09-0.14,0.17-0.22,0.24c-2.62,2.62-5.25,5.25-7.87,7.87C7,9.99,7,10.05,7.13,10.18
		c2.64,2.63,5.28,5.27,7.91,7.91c0.4,0.4,0.48,0.88,0.22,1.3c-0.15,0.25-0.39,0.37-0.65,0.47C14.49,19.86,14.36,19.86,14.23,19.86z"
		/>
</g>
</svg>
