<?xml version="1.0" encoding="utf-8"?>
<!-- Generator: Adobe Illustrator 24.1.1, SVG Export Plug-In . SVG Version: 6.00 Build 0)  -->
<svg version="1.1" id="Layer_1" xmlns="http://www.w3.org/2000/svg" xmlns:xlink="http://www.w3.org/1999/xlink" x="0px" y="0px"
	 viewBox="0 0 14 13" style="enable-background:new 0 0 14 13;" xml:space="preserve">
<style type="text/css">
	.st0{fill-rule:evenodd;clip-rule:evenodd;fill:#D9D9D9;stroke:#D9D9D9;stroke-miterlimit:10;}
</style>
<path class="st0" d="M12.8,0.8c-0.3-0.3-0.8-0.3-1.1,0L7,5.5L2.3,0.8C2,0.5,1.5,0.5,1.2,0.8c-0.3,0.3-0.3,0.8,0,1.1l4.7,4.7
	l-4.7,4.7c-0.3,0.3-0.3,0.8,0,1.1c0.3,0.3,0.8,0.3,1.1,0L7,7.6l4.7,4.7c0.3,0.3,0.8,0.3,1.1,0c0.3-0.3,0.3-0.8,0-1.1L8.1,6.6
	l4.7-4.7C13.1,1.6,13.1,1.1,12.8,0.8z"/>
</svg>
