<svg width="40" height="40" viewBox="0 0 40 40" fill="none" xmlns="http://www.w3.org/2000/svg">
<rect x="0.585693" y="0.5" width="38.8289" height="39" rx="9.5" stroke="white"/>
<path d="M27.7221 15.3061V25.5101C27.7221 26.7469 26.7182 27.755 25.4868 27.755H23.2515V22.0408H24.7227C24.93 22.0408 25.1048 21.8857 25.1291 21.6816L25.2795 20.4571C25.2958 20.3428 25.2592 20.2244 25.182 20.1387C25.1048 20.0489 24.995 19.9999 24.8772 19.9999H23.2515V18.5714C23.2515 18.1224 23.6173 17.755 24.0643 17.755H24.8772C25.1007 17.755 25.2836 17.5714 25.2836 17.3469V15.9673C25.2836 15.7591 25.121 15.5836 24.9137 15.5632C24.8894 15.5591 24.3163 15.5101 23.5888 15.5101C21.8006 15.5101 20.813 16.5795 20.813 18.5183V19.9999H19.1873C18.9638 19.9999 18.7809 20.1836 18.7809 20.4081V21.6326C18.7809 21.8571 18.9638 22.0408 19.1873 22.0408H20.813V27.755H15.3264C14.0949 27.755 13.0911 26.7469 13.0911 25.5101V15.3061C13.0911 14.0693 14.0949 13.0612 15.3264 13.0612H25.4868C26.7182 13.0612 27.7221 14.0693 27.7221 15.3061Z" fill="white"/>
</svg>
