<svg width="40" height="40" viewBox="0 0 40 40" fill="none" xmlns="http://www.w3.org/2000/svg">
<rect x="0.5" y="0.5" width="38.8289" height="39" rx="9.5" stroke="white"/>
<path d="M20.3235 12.5714C16.0129 12.5714 12.5177 16.079 12.5177 20.4081C12.5177 24.7372 16.0129 28.2448 20.3235 28.2448C26.8337 28.2448 28.2994 22.176 27.6872 19.102H20.3209V21.7142H25.3529C24.7737 23.9668 22.7442 25.6326 20.3209 25.6326C17.448 25.6326 15.1188 23.2933 15.1188 20.4081C15.1188 17.5229 17.448 15.1836 20.3209 15.1836C21.6265 15.1836 22.8178 15.6709 23.7323 16.4693L25.5789 14.6147C24.192 13.3443 22.3479 12.5714 20.3235 12.5714Z" fill="white"/>
</svg>
