<?xml version="1.0" encoding="utf-8"?>
<!-- Generator: Adobe Illustrator 27.7.0, SVG Export Plug-In . SVG Version: 6.00 Build 0)  -->
<svg version="1.1" id="Layer_1" xmlns="http://www.w3.org/2000/svg" xmlns:xlink="http://www.w3.org/1999/xlink" x="0px" y="0px"
	 viewBox="0 0 20 20" style="enable-background:new 0 0 20 20;" xml:space="preserve">
<style type="text/css">
	.st0{fill:#FFFFFF;}
</style>
<g>
	<path class="st0" d="M9.99,19.49c-2.11,0-4.21,0-6.32,0c-1.94,0-3.44-1.48-3.44-3.43c-0.01-2.55-0.01-5.09,0-7.64
		c0-1.2,0.51-2.16,1.49-2.85c2.09-1.47,4.19-2.94,6.29-4.4C9.25,0.3,10.75,0.29,12,1.16c2.11,1.46,4.21,2.94,6.31,4.41
		c0.99,0.7,1.49,1.66,1.49,2.87c0,2.53,0.01,5.06,0,7.6c-0.01,1.97-1.5,3.45-3.47,3.45C14.21,19.49,12.1,19.49,9.99,19.49z
		 M1.59,12.23c0,1.27-0.01,2.53,0,3.8c0.01,1.21,0.88,2.08,2.09,2.09c0.6,0,1.2,0,1.79,0c0.17,0,0.22-0.04,0.22-0.21
		c-0.01-1.17,0-2.35,0-3.52c0-0.26,0.01-0.52,0.05-0.79c0.34-2.42,2.77-4.11,5.17-3.58c2.02,0.45,3.41,2.14,3.43,4.22
		c0.01,1.22,0.01,2.43,0,3.65c0,0.17,0.03,0.23,0.22,0.23c0.6-0.01,1.19,0,1.79-0.01c1.2-0.01,2.08-0.87,2.09-2.07
		c0.01-2.55,0-5.11,0-7.66c0-0.71-0.31-1.28-0.89-1.69c-2.09-1.47-4.19-2.94-6.29-4.4c-0.82-0.57-1.68-0.56-2.5,0.01
		c-2.07,1.45-4.13,2.9-6.2,4.34C1.9,7.11,1.58,7.71,1.59,8.5C1.6,9.74,1.59,10.99,1.59,12.23z M10.01,18.11c0.92,0,1.83,0,2.75,0
		c0.17,0,0.21-0.05,0.21-0.21c-0.01-1.2,0-2.4,0-3.6c0-0.15,0-0.3-0.02-0.45c-0.23-1.53-1.59-2.66-3.08-2.56
		c-1.61,0.12-2.79,1.36-2.81,2.95c-0.01,1.22,0,2.45-0.01,3.67c0,0.17,0.05,0.2,0.21,0.2C8.17,18.11,9.09,18.11,10.01,18.11z"/>
</g>
</svg>
