<svg width="40" height="40" viewBox="0 0 40 40" fill="none" xmlns="http://www.w3.org/2000/svg">
<rect x="0.671143" y="0.5" width="38.8289" height="39" rx="9.5" stroke="white"/>
<path d="M17.2433 13.0488C15.0021 13.0488 13.1787 14.8721 13.1787 17.1133V23.6167C13.1787 25.8579 15.0021 27.6813 17.2433 27.6813H23.7466C25.9878 27.6813 27.8112 25.8579 27.8112 23.6167V17.1133C27.8112 14.8721 25.9878 13.0488 23.7466 13.0488H17.2433ZM17.2433 14.6746H23.7466C25.0912 14.6746 26.1854 15.7688 26.1854 17.1133V23.6167C26.1854 24.9612 25.0912 26.0554 23.7466 26.0554H17.2433C15.8987 26.0554 14.8045 24.9612 14.8045 23.6167V17.1133C14.8045 15.7688 15.8987 14.6746 17.2433 14.6746ZM24.5595 15.4875C24.3439 15.4875 24.1372 15.5731 23.9847 15.7256C23.8323 15.8781 23.7466 16.0848 23.7466 16.3004C23.7466 16.516 23.8323 16.7228 23.9847 16.8752C24.1372 17.0277 24.3439 17.1133 24.5595 17.1133C24.7751 17.1133 24.9819 17.0277 25.1344 16.8752C25.2868 16.7228 25.3725 16.516 25.3725 16.3004C25.3725 16.0848 25.2868 15.8781 25.1344 15.7256C24.9819 15.5731 24.7751 15.4875 24.5595 15.4875ZM20.495 16.3004C18.2537 16.3004 16.4304 18.1238 16.4304 20.365C16.4304 22.6062 18.2537 24.4296 20.495 24.4296C22.7362 24.4296 24.5595 22.6062 24.5595 20.365C24.5595 18.1238 22.7362 16.3004 20.495 16.3004ZM20.495 17.9263C21.8395 17.9263 22.9337 19.0204 22.9337 20.365C22.9337 21.7096 21.8395 22.8038 20.495 22.8038C19.1504 22.8038 18.0562 21.7096 18.0562 20.365C18.0562 19.0204 19.1504 17.9263 20.495 17.9263Z" fill="white"/>
</svg>
