<svg width="375" height="705" viewBox="0 0 375 705" fill="none" xmlns="http://www.w3.org/2000/svg">
<path d="M188 343.698L484.046 208.779L599.185 231.08L575.693 330.108L188 343.698Z" fill="white" fill-opacity="0.1"/>
<path d="M188.335 343.698L-107.71 208.779L-222.85 231.08L-199.357 330.108L188.335 343.698Z" fill="white" fill-opacity="0.1"/>
<path d="M189.243 326.662L-3.38047 64.4747L-5.10316 -52.7922L96.6367 -50.0529L189.243 326.662Z" fill="white" fill-opacity="0.1"/>
<path d="M189.244 318L-3.38022 580.187L-5.10292 697.454L96.6369 694.715L189.244 318Z" fill="white" fill-opacity="0.1"/>
<path d="M190.735 318L383.359 580.187L385.081 697.454L283.342 694.715L190.735 318Z" fill="white" fill-opacity="0.1"/>
<path d="M187.951 323.653L263.787 7.27459L352.22 -69.7575L415.82 9.70073L187.951 323.653Z" fill="white" fill-opacity="0.1"/>
</svg>
