<?xml version="1.0" encoding="utf-8"?>
<!-- Generator: Adobe Illustrator 24.1.1, SVG Export Plug-In . SVG Version: 6.00 Build 0)  -->
<svg version="1.1" id="Layer_1" xmlns="http://www.w3.org/2000/svg" xmlns:xlink="http://www.w3.org/1999/xlink" x="0px" y="0px"
	 viewBox="0 0 22 22" style="enable-background:new 0 0 22 22;" xml:space="preserve">
<style type="text/css">
	.st0{display:none;}
	.st1{display:inline;fill:#FFFFFF;stroke:#FFFFFF;stroke-width:0.3;}
	.st2{display:none;fill:#FFFFFF;}
	.st3{display:none;fill:#FFFFFF;stroke:#FFFFFF;stroke-width:0.6;}
	.st4{display:inline;fill:#FFFFFF;stroke:#FFFFFF;stroke-width:0.5;}
	.st5{display:none;fill:#FFFFFF;stroke:#FFFFFF;stroke-width:0.3;}
	.st6{display:none;fill-rule:evenodd;clip-rule:evenodd;fill:#FFFFFF;}
	.st7{fill:#FFFFFF;}
</style>
<g class="st0">
	<path class="st1" d="M17.3,0.3H4.9C4.3,0.3,3.8,0.5,3.4,1C3,1.4,2.7,2,2.7,2.6v12.1H0.9c-0.3,0-0.5,0.3-0.5,0.6v4.3
		c0,0.6,0.2,1.2,0.6,1.6c0.4,0.4,1,0.7,1.5,0.7h17.2c0.6,0,1.1-0.2,1.5-0.7c0.4-0.4,0.6-1,0.6-1.6v-4.3c0-0.2-0.1-0.3-0.2-0.4
		c-0.1-0.1-0.2-0.2-0.4-0.2h-1.9V2.6c0-0.6-0.2-1.2-0.6-1.6C18.4,0.5,17.9,0.3,17.3,0.3L17.3,0.3z M3.8,2.6c0-0.3,0.1-0.6,0.3-0.8
		c0.2-0.2,0.5-0.3,0.8-0.3h12.4c0.3,0,0.6,0.1,0.8,0.3c0.2,0.2,0.3,0.5,0.3,0.8v12.1H17c-0.2,0-0.3,0.1-0.4,0.2l-1.2,1.8H6.8
		l-1.2-1.8h0c-0.1-0.1-0.3-0.2-0.4-0.2H3.8L3.8,2.6z M20.8,19.6c0,0.3-0.1,0.6-0.3,0.8c-0.2,0.2-0.5,0.3-0.8,0.3H2.5
		c-0.3,0-0.6-0.1-0.8-0.3c-0.2-0.2-0.3-0.5-0.3-0.8v-3.7h3.5l1.2,1.8c0.1,0.2,0.3,0.2,0.4,0.2h9.2c0.2,0,0.3-0.1,0.4-0.2l1.2-1.8
		h3.5L20.8,19.6z"/>
	<path class="st1" d="M9.2,9.3h6.5c0.3,0,0.5-0.3,0.5-0.6c0-0.3-0.2-0.6-0.5-0.6H9.2c-0.3,0-0.5,0.3-0.5,0.6
		C8.6,9.1,8.9,9.3,9.2,9.3L9.2,9.3z"/>
	<path class="st1" d="M6.6,9.3h0.8c0.3,0,0.5-0.3,0.5-0.6c0-0.3-0.2-0.6-0.5-0.6H6.6C6.3,8.2,6,8.4,6,8.8C6,9.1,6.3,9.3,6.6,9.3z"/>
	<path class="st1" d="M9.2,5.6h6.5c0.3,0,0.5-0.3,0.5-0.6c0-0.3-0.2-0.6-0.5-0.6H9.2C8.9,4.4,8.6,4.7,8.6,5C8.6,5.3,8.9,5.6,9.2,5.6
		L9.2,5.6z"/>
	<path class="st1" d="M6.6,5.6h0.8c0.3,0,0.5-0.3,0.5-0.6c0-0.3-0.2-0.6-0.5-0.6H6.6C6.3,4.4,6,4.7,6,5C6,5.3,6.3,5.6,6.6,5.6z"/>
	<path class="st1" d="M9.2,13.1h6.5c0.3,0,0.5-0.3,0.5-0.6c0-0.3-0.2-0.6-0.5-0.6H9.2c-0.3,0-0.5,0.3-0.5,0.6
		C8.6,12.8,8.9,13.1,9.2,13.1L9.2,13.1z"/>
	<path class="st1" d="M6.6,13.1h0.8c0.3,0,0.5-0.3,0.5-0.6c0-0.3-0.2-0.6-0.5-0.6H6.6c-0.3,0-0.5,0.3-0.5,0.6
		C6,12.8,6.3,13.1,6.6,13.1z"/>
</g>
<path class="st2" d="M18.2,19.3c-0.2,0-0.5,0-0.7,0c-0.1,0-0.2,0-0.2-0.2c-0.2-1-0.4-2-0.7-3c0-0.2,0-0.3,0.1-0.4
	c1.9-1.9,2.8-4.2,2.5-6.8c-0.4-3.2-2.3-5.4-5.4-6.6C13.4,2.2,13,2.1,12.6,2c0,0,0,0,0,0c0,0,0,0,0,0c0.2-0.4,0.3-0.8,0.5-1.1
	c0.2-0.3,0.1-0.5-0.2-0.7H9.1C8.8,0.4,8.7,0.5,8.9,0.9C9.1,1.2,9.2,1.6,9.4,2c0,0,0,0,0,0c0,0,0,0,0,0C9.2,2,9,2.1,8.8,2.1
	c-4.2,1.1-6.9,5.3-6,9.5c0.4,1.6,1.2,3,2.4,4.2c0.1,0.1,0.1,0.2,0.1,0.3c-0.2,1-0.5,2.1-0.7,3.1c0,0.1-0.1,0.1-0.2,0.1
	c-0.3,0-0.5,0-0.8,0c-0.7,0-1.3,0.7-1.2,1.4c0.1,0.7,0.6,1.1,1.4,1.1c4.5,0,9,0,13.5,0c0.3,0,0.6,0,0.9,0c0.7,0,1.3-0.6,1.3-1.3
	C19.5,19.9,18.9,19.3,18.2,19.3z M12.1,1c-0.4,0.8-0.7,1.5-1.1,2.4C10.6,2.6,10.3,1.8,9.9,1H12.1z M10.6,13.4c0,0.5,0,1,0,1.5
	c0,0.1,0,0.2-0.1,0.1c-1.5-0.2-2.7-0.9-3.6-2c-0.1-0.1-0.1-0.2,0.1-0.3c0.8-0.5,1.7-0.9,2.5-1.4c0.1-0.1,0.2-0.1,0.3,0
	c0.2,0.2,0.4,0.3,0.7,0.4c0.1,0,0.2,0.1,0.1,0.2C10.5,12.4,10.6,12.9,10.6,13.4z M10.6,6.5c0,0.5,0,1,0,1.5c0,0.1,0,0.2-0.2,0.2
	c-0.3,0.1-0.5,0.2-0.7,0.4c-0.1,0.1-0.1,0.1-0.3,0c-0.9-0.5-1.7-1-2.6-1.5C6.7,7,6.7,7,6.8,6.9c0.9-1.2,2.1-1.8,3.6-2
	c0.1,0,0.2,0,0.2,0.1C10.5,5.5,10.6,6,10.6,6.5z M9,9.3c0.1,0.1,0.1,0.1,0.1,0.2C9,9.8,9,10.1,9.1,10.4c0,0.1,0,0.1-0.1,0.2
	c-0.9,0.5-1.8,1-2.6,1.5c-0.1,0.1-0.2,0-0.2-0.1c-0.3-0.7-0.4-1.3-0.4-2c0-0.7,0.1-1.4,0.4-2c0-0.1,0.1-0.1,0.2-0.1
	C7.3,8.3,8.1,8.8,9,9.3z M9.9,9.9c0-0.6,0.5-1,1.1-1c0.6,0,1.1,0.5,1.1,1.1c0,0.6-0.5,1-1.1,1C10.4,11,9.9,10.5,9.9,9.9z M11.4,11.9
	c0-0.1,0-0.1,0.1-0.1c0.3-0.1,0.6-0.2,0.8-0.5c0.1-0.1,0.1-0.1,0.2,0c0.9,0.5,1.8,1,2.8,1.6c-0.5,0.7-1.1,1.2-1.9,1.6
	c-0.6,0.3-1.2,0.5-1.8,0.5c-0.1,0-0.1,0-0.1-0.1C11.4,13.9,11.4,12.9,11.4,11.9z M13,10.6c-0.1-0.1-0.1-0.1-0.1-0.2
	c0.1-0.3,0.1-0.5,0-0.8c0-0.1,0-0.2,0.1-0.2c0.9-0.5,1.7-1,2.6-1.5c0.1-0.1,0.2-0.1,0.2,0.1c0.3,0.7,0.4,1.3,0.4,1.8
	c0,1-0.1,1.7-0.4,2.3c-0.1,0.1-0.1,0.1-0.2,0.1C14.7,11.5,13.9,11.1,13,10.6z M15.2,7.1c-0.9,0.5-1.7,1-2.6,1.5
	c-0.1,0.1-0.2,0-0.3,0c-0.2-0.2-0.5-0.3-0.7-0.4c-0.1,0-0.2-0.1-0.2-0.2c0-0.5,0-1,0-1.5c0-0.5,0-1,0-1.5c0-0.1,0-0.2,0.2-0.1
	c1.5,0.2,2.7,0.9,3.6,2C15.3,7,15.3,7,15.2,7.1z M3.7,11.2C3.1,7.6,5.2,4.2,8.7,3C9,3,9.3,2.9,9.6,2.8c0.1,0,0.1,0,0.2,0.1
	C10,3.3,10.2,3.6,10.3,4c-2,0.3-3.5,1.2-4.5,2.8C5,8.1,4.7,9.4,4.9,10.9c0.5,2.9,3.1,5,6.1,5c3,0,5.6-2.1,6-5.1
	c0.2-1.1,0-2.1-0.4-3.1c-0.4-1-1.1-1.9-2-2.5c-0.9-0.7-1.9-1-3-1.2c0.2-0.4,0.3-0.7,0.5-1.1c0.1-0.1,0.2-0.1,0.3-0.1
	c0.9,0.2,1.8,0.5,2.5,1c2.3,1.5,3.5,3.6,3.5,6.4c-0.1,3.5-2.8,6.4-6.3,6.9C8.2,17.7,4.3,15,3.7,11.2z M16.4,19.3c-0.3,0-0.6,0-0.8,0
	c-0.1,0-0.1,0-0.1-0.1c-0.2-0.7-0.3-1.4-0.5-2.1c0-0.1,0-0.1,0.1-0.2c0.2-0.1,0.5-0.3,0.7-0.4C16,17.5,16.2,18.4,16.4,19.3z
	 M14.4,19.3c-1.1,0-2.3,0-3.4,0c-1.1,0-2.3,0-3.4,0c-0.2,0-0.2,0-0.2-0.2c0.1-0.5,0.2-1,0.4-1.6c0-0.1,0.1-0.1,0.2-0.1
	c1.2,0.5,2.4,0.6,3.7,0.5c0.8-0.1,1.6-0.2,2.3-0.5c0.2-0.1,0.2-0.1,0.2,0.1c0.1,0.5,0.2,1,0.3,1.5C14.6,19.3,14.6,19.3,14.4,19.3z
	 M6.9,17.3c-0.2,0.6-0.3,1.2-0.4,1.8c0,0.2-0.1,0.2-0.3,0.2c-0.1,0-0.2,0-0.3,0c-0.5,0-0.5,0-0.4-0.4c0.2-0.7,0.3-1.5,0.5-2.2
	c0-0.1,0.1-0.2,0.2-0.1c0.1,0.1,0.3,0.2,0.4,0.2C6.9,17,7,17.1,6.9,17.3z M18,21H11c-2.4,0-4.7,0-7.1,0c-0.4,0-0.6-0.2-0.5-0.5
	c0.1-0.2,0.2-0.3,0.4-0.3c0.1,0,0.1,0,0.2,0H18c0.4,0,0.6,0.1,0.6,0.4C18.6,20.9,18.4,21,18,21z"/>
<path class="st3" d="M14.8,4.2c-0.9,0-1.8,0.2-2.6,0.5c-1.1-0.3-2.3-0.4-3.6-0.4c-2.2,0-4.2,0.4-5.8,1.2C1.2,6.3,0.3,7.4,0.3,8.6
	c0,0.4,0.1,0.8,0.3,1.2c-0.2,0.4-0.3,0.8-0.3,1.2c0,0.4,0.1,0.8,0.3,1.2c-0.2,0.4-0.3,0.8-0.3,1.2c0,1.2,0.9,2.3,2.5,3.1
	c1.5,0.8,3.6,1.2,5.8,1.2c1.2,0,2.4-0.1,3.4-0.4c0.8,0.4,1.8,0.6,2.7,0.6c3.7,0,6.8-3.1,6.8-6.9C21.6,7.3,18.5,4.2,14.8,4.2
	L14.8,4.2z M3.2,6.2c1.4-0.7,3.3-1.1,5.4-1.1c0.8,0,1.6,0.1,2.4,0.2c-1.8,1.2-3,3.4-3,5.7c0,0.3,0,0.7,0.1,1
	c-3.8-0.1-6.9-1.7-6.9-3.5C1.1,7.7,1.9,6.9,3.2,6.2L3.2,6.2z M1.1,11c0-0.2,0-0.3,0.1-0.5c1.3,1.3,3.9,2.2,7,2.3
	c0.2,0.6,0.4,1.1,0.7,1.6c-0.1,0-0.2,0-0.3,0c-2,0-4-0.4-5.4-1.1C1.9,12.8,1.1,11.9,1.1,11L1.1,11z M8.6,16.9c-2,0-4-0.4-5.4-1.1
	c-1.3-0.6-2.1-1.5-2.1-2.4c0-0.2,0-0.3,0.1-0.5c0.4,0.4,1,0.8,1.6,1.1c1.5,0.8,3.6,1.2,5.8,1.2c0.3,0,0.5,0,0.8,0
	c0.4,0.6,0.9,1,1.5,1.4C10.2,16.9,9.4,16.9,8.6,16.9L8.6,16.9z M14.8,17.1c-3.3,0-6-2.7-6-6.1c0-3.3,2.7-6.1,6-6.1
	c3.3,0,6,2.7,6,6.1C20.7,14.4,18.1,17.1,14.8,17.1L14.8,17.1z"/>
<g class="st0">
	<path class="st4" d="M11,8.6c1.1,0,2.1-0.4,2.9-1.2c0.8-0.8,1.2-1.8,1.2-2.9c0-1.1-0.4-2.1-1.2-2.9c-0.8-0.8-1.8-1.2-2.9-1.2
		c-1.1,0-2.1,0.4-2.9,1.2C7.4,2.4,6.9,3.5,6.9,4.6c0,1.1,0.4,2.1,1.2,2.9C8.9,8.2,9.9,8.6,11,8.6L11,8.6z M11,1.2
		c0.9,0,1.8,0.4,2.4,1c0.6,0.6,1,1.5,1,2.4c0,0.9-0.4,1.8-1,2.4c-0.6,0.6-1.5,1-2.4,1s-1.8-0.4-2.4-1c-0.6-0.6-1-1.5-1-2.4
		c0-0.9,0.4-1.8,1-2.4C9.3,1.5,10.1,1.2,11,1.2z"/>
	<path class="st4" d="M17.9,11.3c0.7,0,1.3-0.3,1.8-0.7c0.5-0.5,0.7-1.1,0.7-1.8c0-0.7-0.3-1.3-0.7-1.8c-0.5-0.5-1.1-0.7-1.8-0.7
		c-0.7,0-1.3,0.3-1.8,0.7c-0.5,0.5-0.7,1.1-0.7,1.8c0,0.7,0.3,1.3,0.7,1.8C16.5,11,17.2,11.3,17.9,11.3z M17.9,7
		c0.5,0,0.9,0.2,1.3,0.5c0.3,0.3,0.5,0.8,0.5,1.3c0,0.5-0.2,0.9-0.5,1.3c-0.3,0.3-0.8,0.5-1.3,0.5c-0.5,0-0.9-0.2-1.3-0.5
		c-0.3-0.3-0.5-0.8-0.5-1.3c0-0.5,0.2-0.9,0.5-1.3C16.9,7.1,17.4,7,17.9,7z"/>
	<path class="st4" d="M17.9,12.5c-0.7,0-1.5,0.3-2,0.7c-0.3-0.9-0.9-1.8-1.7-2.4c-0.8-0.6-1.8-0.9-2.8-0.9h-0.7c-1,0-2,0.3-2.8,0.9
		c-0.8,0.6-1.4,1.4-1.7,2.4c-0.6-0.5-1.5-0.8-2.3-0.7c-0.8,0.1-1.6,0.4-2.1,1c-0.6,0.6-0.9,1.4-0.9,2.2v4.8c0,0.1,0,0.2,0.1,0.3
		C1.1,20.9,1.2,21,1.2,21h4.7v0.4c0,0.1,0,0.2,0.1,0.3c0.1,0.1,0.2,0.1,0.3,0.1h9.4c0.1,0,0.2,0,0.3-0.1c0.1-0.1,0.1-0.2,0.1-0.3V21
		h4.7c0.1,0,0.2,0,0.3-0.1c0.1-0.1,0.1-0.2,0.1-0.3v-4.8c0-0.9-0.3-1.7-1-2.3C19.6,12.9,18.7,12.5,17.9,12.5L17.9,12.5z M1.6,20.2
		v-4.5c0-0.7,0.3-1.3,0.8-1.8c0.5-0.5,1.1-0.7,1.8-0.7c0.7,0,1.3,0.3,1.8,0.8c0,0.2,0,0.4,0,0.6v5.6H1.6z M15.3,21H6.7v-6.3
		c0-1.1,0.4-2.1,1.2-2.8c0.7-0.7,1.8-1.2,2.8-1.2h0.7c1.1,0,2.1,0.4,2.8,1.2c0.7,0.7,1.2,1.8,1.2,2.8V21z M20.4,20.2h-4.3v-5.6
		c0-0.2,0-0.4,0-0.6c0.5-0.5,1.1-0.8,1.8-0.8c0.7,0,1.3,0.2,1.8,0.7c0.5,0.5,0.8,1.1,0.8,1.8V20.2z"/>
	<path class="st4" d="M4.1,11.3c0.7,0,1.3-0.3,1.8-0.7c0.5-0.5,0.7-1.1,0.7-1.8c0-0.7-0.3-1.3-0.7-1.8C5.5,6.5,4.8,6.2,4.1,6.2
		C3.5,6.2,2.8,6.5,2.3,7C1.9,7.4,1.6,8.1,1.6,8.8c0,0.7,0.3,1.3,0.7,1.8C2.8,11,3.5,11.3,4.1,11.3z M4.1,7c0.5,0,0.9,0.2,1.3,0.5
		c0.3,0.3,0.5,0.8,0.5,1.3c0,0.5-0.2,0.9-0.5,1.3c-0.3,0.3-0.8,0.5-1.3,0.5S3.2,10.4,2.9,10C2.5,9.7,2.3,9.2,2.3,8.8
		c0-0.5,0.2-0.9,0.5-1.3C3.2,7.1,3.7,7,4.1,7z"/>
</g>
<path class="st5" d="M21.5,16.9c-0.9-1.7-2.4-3.1-4.2-4.3c-0.5-0.3-1.2-0.2-1.6,0.2l-1.9,1.9c-0.2,0.2-0.5,0.2-0.7,0.1
	c-1.3-0.7-2.5-1.6-3.5-2.6c-1-1-1.9-2.2-2.6-3.5C6.9,8.5,6.9,8.3,7.1,8.1L9,6.2c0.4-0.4,0.5-1.1,0.2-1.6C8.1,2.7,6.6,1.3,4.9,0.3
	C4.5,0.1,4,0.1,3.6,0.4c-1.2,0.9-2.3,2-3.2,3.2C0.2,3.9,0.1,4.3,0.2,4.6C2.3,14.3,8,20,17.3,21.7c0.1,0,0.1,0,0.2,0
	c0.2,0,0.5-0.1,0.7-0.2c1.3-0.9,2.4-2,3.3-3.2C21.7,17.9,21.8,17.3,21.5,16.9L21.5,16.9z M20.6,17.7c-0.8,1.1-1.8,2.1-3,3
	c0,0-0.1,0-0.2,0c-8.8-1.5-14.3-7-16.3-16.3c0-0.1,0-0.1,0-0.2C2,3,3,2,4.2,1.2c0.1,0,0.1-0.1,0.2-0.1c0.1,0,0.1,0,0.1,0
	C6,2.1,7.3,3.4,8.4,5.1c0.1,0.1,0.1,0.3,0,0.4L6.4,7.4C5.9,7.9,5.8,8.6,6.2,9.2c0.8,1.4,1.7,2.6,2.7,3.7c1.1,1.1,2.3,2,3.7,2.7
	c0.6,0.3,1.4,0.2,1.9-0.3l1.9-1.9c0.1-0.1,0.3-0.1,0.4,0h0c1.7,1,3,2.4,3.9,3.9C20.7,17.5,20.7,17.6,20.6,17.7L20.6,17.7z"/>
<path class="st6" d="M2.2,0.1C1,0.1,0.1,0.8,0.1,1.8V17c0,0.9,1,1.7,2.2,1.7h2v1.6c0,0.9,1,1.7,2.2,1.7h13.5c1.2,0,2.2-0.8,2.2-1.7
	V5c0-0.9-1-1.7-2.2-1.7h-2V1.8c0-0.9-1-1.7-2.2-1.7L2.2,0.1z M2.2,1.3h13.5c0.3,0,0.5,0.2,0.5,0.4V17c0,0.2-0.2,0.4-0.5,0.4L5,17.4
	H2.2c-0.3,0-0.5-0.2-0.5-0.4V1.8C1.7,1.5,1.9,1.3,2.2,1.3L2.2,1.3z M4.3,3.5C4,3.5,3.8,3.5,3.7,3.7C3.5,3.8,3.4,3.9,3.4,4.1
	c0,0.2,0.1,0.3,0.2,0.5C3.8,4.7,4,4.8,4.3,4.8h3.1c0.2,0,0.4-0.1,0.6-0.2C8,4.5,8.1,4.3,8.1,4.1c0-0.4-0.4-0.6-0.8-0.6L4.3,3.5z
	 M17.9,4.6h2c0.3,0,0.5,0.2,0.5,0.4v15.3c0,0.2-0.2,0.4-0.5,0.4l-13.5,0c-0.3,0-0.5-0.2-0.5-0.4v-1.6h9.9c1.2,0,2.2-0.8,2.2-1.7
	L17.9,4.6z M4.3,7C4,7,3.8,7.1,3.7,7.2C3.5,7.3,3.4,7.5,3.4,7.6c0,0.2,0.1,0.3,0.2,0.5C3.8,8.2,4,8.3,4.3,8.3h9.4
	c0.5,0,0.8-0.3,0.8-0.6c0-0.2-0.1-0.3-0.2-0.5C14.1,7.1,13.9,7,13.7,7L4.3,7z M4.3,10.5L4.3,10.5c-0.2,0-0.4,0.1-0.6,0.2
	c-0.2,0.1-0.2,0.3-0.2,0.5c0,0.2,0.1,0.3,0.2,0.5c0.2,0.1,0.4,0.2,0.6,0.2h9.4c0.5,0,0.8-0.3,0.8-0.6c0-0.2-0.1-0.3-0.2-0.5
	c-0.2-0.1-0.4-0.2-0.6-0.2L4.3,10.5z M10.6,14c-0.2,0-0.4,0.1-0.6,0.2c-0.2,0.1-0.2,0.3-0.2,0.5c0,0.2,0.1,0.3,0.2,0.5
	c0.2,0.1,0.4,0.2,0.6,0.2h3.1c0.5,0,0.8-0.3,0.8-0.6c0-0.2-0.1-0.3-0.2-0.5c-0.2-0.1-0.4-0.2-0.6-0.2H10.6z"/>
<g>
	<path class="st7" d="M21.5,15.4c-0.2-0.5-0.4-1-0.7-1.4c-0.1-0.2-0.1-0.3-0.1-0.5c0.1-0.9,0.1-1.8,0.1-2.7c0-0.8,0-1.6-0.1-2.4
		c0-0.8-0.1-1.6-0.2-2.4c-0.1-0.5-0.1-1.1-0.3-1.6c-0.3-1-0.9-1.8-1.7-2.6c-0.7-0.7-1.6-1.2-2.5-1.4c-1.3-0.3-2.6-0.4-4-0.4
		c0,0-3.5,0-3.5,0c-0.9,0-1.9,0.1-2.8,0.2C5.1,0.4,4.5,0.4,4,0.6C3.1,1,2.4,1.5,1.8,2.2c-0.6,0.6-1,1.3-1.3,2.2
		C0.2,5.5,0.1,6.7,0,7.9c0,0.2,0,0.4,0,0.5c0,0.4,0,0.8,0,1.2c0,0,0,2.5,0,2.5c0,0.9,0.1,1.7,0.2,2.6c0.1,0.6,0.1,1.2,0.3,1.7
		c0.3,1.1,1,2,1.8,2.7c0.8,0.7,1.7,1.1,2.8,1.3c0.3,0,0.7,0.1,1,0.1c1.1,0.1,2.3,0.2,3.4,0.2c0.8,0,1.6,0,2.3,0c0.5,0,1,0,1.5-0.1
		c0.2,0,0.3,0,0.4,0.1c0.5,0.3,0.9,0.6,1.5,0.7c0.2,0.1,0.3,0.1,0.5,0.1c0.3,0,0.6,0.1,0.9,0.1c0.4,0,0.8,0,0.9,0
		c0.6-0.1,1.1-0.3,1.6-0.6c0.8-0.5,1.5-1.1,1.9-1.9c0.3-0.6,0.5-1.2,0.6-1.8v-1.1C21.7,16,21.6,15.7,21.5,15.4z M12,15.8
		c-0.2,1.1-0.1,2.1,0.4,3.1c0.1,0.2,0.1,0.2-0.1,0.2c-1.5,0.1-3,0.1-4.4,0c-1-0.1-2-0.1-2.9-0.4C3.2,18.2,2.2,17,2,15.3
		c-0.3-1.6-0.3-3.3-0.3-4.9C1.6,8.7,1.7,7,2,5.3c0.2-1.2,0.9-2.1,1.9-2.7C4.5,2.2,5.1,2,5.8,1.9c1.9-0.3,3.8-0.3,5.7-0.3
		c1.4,0,2.9,0.1,4.3,0.4c1.5,0.3,2.8,1.8,3.1,3.3c0.4,2.3,0.4,4.6,0.3,7c0,0.2,0,0.2-0.2,0.1C16,11,12.7,12.7,12,15.8z M16.8,20.1
		c-1.8,0-3.3-1.5-3.3-3.3c0-1.8,1.5-3.3,3.3-3.3c1.8,0,3.3,1.5,3.3,3.3C20.1,18.6,18.6,20.1,16.8,20.1z"/>
	<path class="st7" d="M16.1,6.9c-0.2,0.1-0.3,0.2-0.5,0.2c-3.4,0-6.9,0-10.3,0c-0.5,0-0.9-0.3-0.9-0.8c0-0.5,0.4-0.8,0.9-0.8
		c1.7,0,3.4,0,5.1,0c1.7,0,3.4,0,5.2,0c0.4,0,0.7,0.2,0.8,0.5C16.4,6.3,16.3,6.7,16.1,6.9z"/>
	<path class="st7" d="M12.2,11.3c0,0.5-0.4,0.8-0.9,0.8c-1,0-2,0-3,0c-1,0-2.1,0-3.1,0c-0.4,0-0.7-0.3-0.8-0.6
		c-0.1-0.4,0.1-0.7,0.4-0.9c0.1-0.1,0.3-0.1,0.4-0.1c2,0,4,0,6.1,0C11.8,10.5,12.1,10.8,12.2,11.3z"/>
	<path class="st7" d="M17.6,16.4c0,0.5-0.4,0.8-0.8,0.8c-0.4,0-0.8-0.4-0.8-0.8c0-0.2,0-0.5,0-0.7c0-0.2,0-0.4,0-0.7
		c0-0.5,0.4-0.8,0.8-0.8c0.4,0,0.8,0.3,0.8,0.8C17.6,15.5,17.6,16,17.6,16.4z"/>
	<path class="st7" d="M17.6,18.5c0,0.7-0.1,0.8-0.8,0.8c-0.1,0-0.1,0-0.2,0c-0.4,0-0.6-0.2-0.6-0.6c0-0.2,0-0.4,0-0.6
		c0-0.3,0.2-0.4,0.5-0.4c0.2,0,0.4,0,0.6,0c0.3,0,0.5,0.2,0.5,0.5C17.6,18.3,17.6,18.4,17.6,18.5z"/>
</g>
</svg>
